<?xml version="1.0" encoding="UTF-8"?>
<svg id="b" data-name="Layer 2" xmlns="http://www.w3.org/2000/svg" width="185.203" height="180.676" viewBox="0 0 200.203 200.676">
  <defs>
    <style>
      .d {
        fill: none;
        stroke: #935f54;
        stroke-miterlimit: 10;
      }
    </style>
  </defs>
  <g id="c" data-name="Layer 1">
    <g>
    <g>
      <path d="m128.825,12.819l3.247,1.827c-1.474,3.182-.527,5.72,2.76,7.569,3.086,1.737,5.835,1.542,7.278-1.024,1.534-2.726.038-5.414-3.048-7.151l-.722-.406,1.488-2.646.682.383c3.006,1.691,5.477,1.709,6.853-.736,1.331-2.365.316-4.783-2.49-6.361-2.485-1.398-5.402-1.562-7.604,1.791l-3.287-1.849c3.235-5.093,8.278-5.053,12.607-2.617,4.89,2.751,6.346,7.106,4.248,10.834-1.285,2.285-3.292,3.319-6.239,2.928,1.967,2.32,2.34,5.222.829,7.907-2.188,3.888-6.86,4.689-12.031,1.78-4.85-2.729-7.15-7.083-4.571-12.229Z"/>
      <path d="m156.471,24.904c6.377-5.496,12.748-6.066,17.192-.908,3.423,3.973,3.271,8.659-.443,12.101l-2.462-2.857c2.075-2.031,2.697-4.692.475-7.271-2.733-3.171-6.549-2.737-11.474,1.202,2.106.189,4.27,1.361,6.102,3.487,3.724,4.321,3.152,8.943-.507,12.097-3.694,3.183-8.686,2.747-12.259-1.4-3.784-4.391-3.839-10.234,3.375-16.45Zm6.291,14.983c2.509-2.162,2.622-4.992.459-7.501-1.622-1.882-3.535-2.905-5.627-3.289-4.43,4.303-4.347,7.571-2.154,10.115,2.072,2.404,4.952,2.716,7.322.674Z"/>
      <path d="m174.18,47.792c7.613-2.884,13.819-1.694,16.28,4.801,2.477,6.538-1.431,11.413-8.873,14.232-7.57,2.868-13.862,1.71-16.339-4.828-2.461-6.495,1.447-11.37,8.932-14.206Zm5.936,15.41c4.904-1.858,9.056-4.661,7.231-9.479-1.825-4.817-6.792-4.166-11.696-2.308-4.904,1.858-9.099,4.677-7.274,9.495,1.825,4.817,6.835,4.149,11.739,2.292Zm-2.917-7.7c1.033-.391,2.041.063,2.448,1.139.407,1.075-.047,2.083-1.079,2.475-1.076.407-2.084-.047-2.491-1.122-.407-1.076.047-2.084,1.122-2.491Z"/>
      <path d="m175.592,147.669l-2.618,3.208-25.891-9.31,2.618-3.208,6.085,2.293,6.398-7.842-3.468-5.501,2.559-3.137,14.316,23.496Zm-11.566-12.167l-5.177,6.345,3.874,1.438,8.553,3.417-5.063-7.694-2.187-3.505Z"/>
      <path d="m155.64,167.263l-6.514,3.897c-7.303,4.37-12.04.933-15.843-5.423-3.921-6.553-4.664-12.542,2.521-16.84l6.513-3.897,13.322,22.264Zm-14.921-17.5l-3.237,1.937c-5.447,3.259-3.023,8.295-.897,11.848,2.149,3.592,5.418,8.069,10.866,4.81l3.237-1.937-9.968-16.658Z"/>
      <path d="m127.886,181.461l-4.021.769-7.198-12.908-4.102-7.739-.885,8.599-1.912,14.743-3.931.751,4.075-27.192,4.157-.794,13.817,23.772Z"/>
      <path d="m91.036,185.379l-16.671-2.648.513-3.226,12.9,2.05,1.227-7.722-11.22-1.783.512-3.225,11.22,1.783,1.306-8.222-12.901-2.05.513-3.225,16.671,2.649-4.07,25.62Z"/>
      <path d="m57.957,176.97l-5.868-3.268c-5.828-3.246-8.062-7.649-5.555-12.151,2.037-3.657,5.667-4.69,9.227-3.708l-2.02-12.92,4.18,2.328,1.609,11.955,3.015,1.679,4.701-8.44,3.336,1.858-12.625,22.668Zm3.044-13.312l-2.572-1.433c-4.261-2.373-6.871-1.562-8.304,1.01-1.41,2.532-.747,5.218,3.513,7.591l2.572,1.433,4.791-8.601Z"/>
      <path d="m28.202,150.912l5.731,6.599-2.466,2.142-14.027-16.149,2.466-2.142,5.792,6.668,17.122-14.873,2.503,2.883-17.121,14.872Z"/>
      <path d="m31.089,122.038l-2.274-5.928-18.126,6.955,2.274,5.928-3.05,1.17-5.9-15.377,3.05-1.17,2.258,5.884,18.126-6.954-2.258-5.885,3.05-1.17,5.899,15.377-3.05,1.17Z"/>
      <path d="m19.166,98.478l-.066-3.725c2.986-.236,4.607-2.243,4.54-6.06-.062-3.496-1.481-5.771-4.103-5.725-2.023.036-2.92,1.386-3.707,3.746l-1.879,5.6c-1.049,3.146-2.98,5.803-6.751,5.869-4.599.081-7.107-3.877-7.197-8.982-.092-5.243,2.374-8.92,7.708-9.06l.064,3.679c-3.676.249-4.504,2.839-4.459,5.415.059,3.357,1.608,5.125,3.724,5.087,1.748-.031,2.831-1.246,3.529-3.375l1.88-5.6c1.398-4.211,3.158-6.174,6.699-6.236,5.289-.093,7.664,4.144,7.758,9.524.104,5.887-2.542,9.751-7.739,9.843Z"/>
      <path d="m24.562,70.742l2.063-6.003-18.358-6.31-2.064,6.003-3.088-1.062,5.354-15.574,3.088,1.062-2.048,5.96,18.358,6.311,2.049-5.96,3.088,1.062-5.353,15.574-3.089-1.062Z"/>
      <path d="m17.131,32.192l3.211-3.97,22.396,7.643-6.055-4.365-11.481-9.287,2.17-2.682,20.172,16.317-3.211,3.97-22.396-7.643,6.054,4.365,11.481,9.287-2.169,2.683-20.172-16.317Z"/>
      <path d="m45.795,19.947c-4.306-7.125-3.938-13.367,1.927-16.911,4.212-2.545,8.835-2.276,12.402,3.093l-3.149,1.903c-2.313-3.117-4.548-3.97-7.422-2.233-5,3.021-2.704,8.244-.348,12.141,2.711,4.488,6.036,8.122,10.642,5.339,2.047-1.237,2.949-2.857,3.464-4.673l-2.974-4.921-5.197,3.14-1.641-2.716,8.346-5.043,7.232,11.968-2.559,1.546-1.475-2.441c-.042,1.531-.964,4.452-4.232,6.427-6.023,3.64-11.472-.753-15.017-6.619Z"/>
    </g>
    <circle class="d" cx="98.396" cy="87.41" r="58.86"/>
  </g>
    <animateTransform attributeName="transform" type="rotate" from="0 95.6015 95.6015" to="360 95.6015 95.6015" dur="10s" repeatCount="indefinite"></animateTransform>
  </g>
</svg>