<?xml version="1.0" encoding="UTF-8"?>
<svg id="b" data-name="Layer 2" xmlns="http://www.w3.org/2000/svg" width="71.931" height="77.604" viewBox="0 0 71.931 77.604">
  <defs>
    <style>
      .d {
        fill: #b22924;
      }
    </style>
  </defs>
  <g id="c" data-name="Layer 1">
    <path class="d" d="m.264,5.928c-.162,1.971.694,3.551,2.073,4.917,4.881,4.838,9.74,9.699,14.626,14.532,4.692,4.642,9.277,9.393,13.905,14.1,1.181,1.201,2.515,2.131,4.236,2.327,2.3.262,4.088-.792,5.604-2.358,3.317-3.427,6.755-6.732,10.095-10.135,6.244-6.362,12.591-12.623,18.9-18.921.803-.802,1.349-1.736,1.615-2.838.038-.156.002-.385.179-.442.494-.16.435-.566.432-.925-.007-.871-.114-1.66-.533-2.515-.942-1.924-2.214-3.22-4.395-3.526-2.364-.332-4.526-.038-6.244,1.819-.212.229-.435.448-.654.671-3.381,3.451-6.747,6.917-10.149,10.348-3.504,3.534-7.053,7.023-10.559,10.554-1.012,1.019-1.978,2.083-3.05,3.043-.344.309-.578.283-.891-.028-1.094-1.086-2.215-2.143-3.308-3.229-2.88-2.863-5.754-5.73-8.622-8.605-3.971-3.981-7.972-7.934-11.881-11.975C10.082,1.129,8.455.017,6.083,0,3.648-.017,1.507,1.197.615,3.443c-.318.799-.393,1.61-.351,2.485Z"/>
    <path class="d" d="m.023,41.637c-.184,1.902.766,3.502,2.152,4.888,4.329,4.332,8.668,8.654,13.02,12.962,5.314,5.261,10.547,10.602,15.793,15.93.596.606,1.186,1.23,2.002,1.569,2.655,1.103,5.078.756,7.143-1.27,3.136-3.078,6.216-6.212,9.322-9.32,4.329-4.33,8.661-8.657,12.99-12.987.869-.869,1.698-1.777,2.635-2.577,1.906-1.626,3.62-3.444,5.281-5.314.418-.471.66-.998.631-1.645-.021-.464.076-.909.311-1.321.236-.414.244-.859.001-1.253-.328-.534-.384-1.113-.302-1.688.095-.667-.161-1.171-.539-1.662-2.198-2.859-6.722-3.107-9.133-.618-1.087,1.122-2.182,2.236-3.279,3.348-4.24,4.296-8.659,8.413-12.715,12.897-2.122,2.346-4.427,4.526-6.664,6.766-.677.677-1.407,1.301-2.108,1.953-.428.398-.803.399-1.233-.038-1.212-1.232-2.474-2.415-3.707-3.626-5.527-5.431-10.814-11.101-16.345-16.527-1.871-1.835-3.604-3.817-5.772-5.339-2.008-1.41-4.139-1.626-6.31-.578C1.037,37.23-.07,39.019.023,41.637Z"/>
  </g>
</svg>